<svg width="62" height="29" viewBox="0 0 62 29" fill="none" xmlns="http://www.w3.org/2000/svg">
<path fill-rule="evenodd" clip-rule="evenodd" d="M15.045 17.4236C15.045 18.9386 14.415 20.1686 13.14 21.1136C11.88 22.0586 10.035 22.5386 7.62 22.5386C4.035 22.5386 1.5 21.6236 0 19.7936L2.76 16.7936C3.645 18.2636 5.19 19.0136 7.365 19.0136C8.1 19.0136 8.67 18.9086 9.09 18.7136C9.51 18.5186 9.72 18.2486 9.72 17.9186C9.72 17.6186 9.495 17.3636 9.075 17.1536C8.64 16.9286 7.92 16.7186 6.87 16.5086C4.545 16.0586 2.88 15.4286 1.89 14.6336C0.9 13.8536 0.405 12.8036 0.405 11.4836C0.405 10.5986 0.69 9.74359 1.26 8.96359C1.815 8.16859 2.67 7.52359 3.795 7.04359C4.935 6.54859 6.315 6.30859 7.935 6.30859C9.18 6.30859 10.26 6.42859 11.19 6.65359L8.01 9.83359C7.29 9.84859 6.75 9.96859 6.345 10.1786C5.925 10.4036 5.715 10.6886 5.715 11.0186C5.715 11.3336 5.925 11.5886 6.36 11.8136C6.78 12.0386 7.53 12.2486 8.595 12.4586C10.875 12.8486 12.525 13.4336 13.53 14.2136C14.55 14.9936 15.045 16.0586 15.045 17.4236Z" fill="#323232"/>
<path fill-rule="evenodd" clip-rule="evenodd" d="M10.2299 10.1936L13.0199 7.40356C13.8449 7.85356 14.5199 8.46856 15.0749 9.23356L12.3299 11.9186C11.8349 11.1986 11.2349 10.6586 10.5599 10.3286C10.4549 10.2836 10.3499 10.2386 10.2299 10.1936Z" fill="#A7A7A7"/>
<path fill-rule="evenodd" clip-rule="evenodd" d="M22.0725 13.0784H27.9405C27.69 11.0384 26.733 10.0184 25.068 10.0184C23.3835 10.0184 22.3845 11.0384 22.0725 13.0784ZM32.745 15.9479H22.1025C22.269 16.9259 22.629 17.6459 23.1795 18.1019C23.7315 18.5594 24.465 18.7889 25.3815 18.7889C26.151 18.7889 26.781 18.6434 27.27 18.3509C27.7575 18.0614 28.0845 17.6354 28.2525 17.0714L32.5575 18.4454C32.1225 19.7789 31.2735 20.7929 30.015 21.4889C28.7565 22.1864 27.2115 22.5344 25.3815 22.5344C22.6545 22.5344 20.5695 21.8264 19.122 20.4119C17.676 18.9959 16.953 17.0009 16.953 14.4194C16.953 11.8394 17.661 9.84294 19.0755 8.42844C20.49 7.01244 22.4985 6.30444 25.0995 6.30444C27.618 6.30444 29.547 6.99744 30.8895 8.37894C32.232 9.76344 32.9025 11.7044 32.9025 14.2004C32.9025 14.9099 32.853 15.4919 32.745 15.9479Z" fill="#323232"/>
<path fill-rule="evenodd" clip-rule="evenodd" d="M41.1124 16.8225C41.1124 17.5305 41.2159 18.0285 41.4244 18.321C41.6329 18.6135 42.0064 18.7575 42.5479 18.7575C43.0474 18.7575 43.5784 18.6645 44.1394 18.4755L43.7974 21.7545C43.4209 21.984 42.9334 22.1715 42.3289 22.317C41.7244 22.461 41.1334 22.5345 40.5514 22.5345C38.8849 22.5345 37.6789 22.1445 36.9289 21.3645C36.1804 20.5845 35.8069 19.329 35.8069 17.6025V0H41.1124V16.8225Z" fill="#323232"/>
<mask id="mask0" mask-type="alpha" maskUnits="userSpaceOnUse" x="43" y="6" width="19" height="23">
<path fill-rule="evenodd" clip-rule="evenodd" d="M43.7339 6.61646H61.4294V28.9332H43.7339V6.61646Z" fill="white"/>
</mask>
<g mask="url(#mask0)">
<path fill-rule="evenodd" clip-rule="evenodd" d="M55.7174 22.2225C55.1354 23.886 54.5009 25.2075 53.8154 26.187C53.1284 27.165 52.3169 27.867 51.3794 28.293C50.4449 28.7205 49.3094 28.9335 47.9774 28.9335C46.2104 28.9335 44.7959 28.5465 43.7339 27.777L44.8559 24.219C45.1889 24.531 45.5594 24.744 45.9644 24.8595C46.3709 24.9735 46.8959 25.032 47.5409 25.032C48.1859 25.032 48.6974 24.9225 49.0709 24.7035C49.4459 24.486 49.7459 24.0945 49.9739 23.5335L50.3504 22.566L48.5399 18.321L43.8884 6.61646H49.7249L52.1279 15.5115L52.8779 18.822L53.7209 15.387L56.1239 6.61646H61.4294L55.7174 22.2225Z" fill="#323232"/>
</g>
</svg>
